<svg width="459" height="200" viewBox="0 0 459 200" fill="none" xmlns="http://www.w3.org/2000/svg">
<mask id="mask0_45_10" style="mask-type:alpha" maskUnits="userSpaceOnUse" x="0" y="0" width="459" height="200">
<rect width="459" height="200" fill="#D9D9D9"/>
</mask>
<g mask="url(#mask0_45_10)">
<path d="M101.073 4C153.59 4.00026 196.221 46.9485 196.221 100C196.221 153.051 153.59 196 101.073 196C48.5557 196 5.92346 153.052 5.92346 100C5.92346 46.9484 48.5557 4 101.073 4Z" stroke="white" stroke-width="8"/>
<path d="M167.007 14.5C174.666 14.5002 180.883 20.7641 180.883 28.5C180.883 36.2359 174.666 42.4998 167.007 42.5C159.347 42.5 153.13 36.236 153.13 28.5C153.13 20.764 159.347 14.5 167.007 14.5Z" fill="white" stroke="white"/>
<mask id="path-4-outside-1_45_10" maskUnits="userSpaceOnUse" x="52.7106" y="80.0649" width="96" height="37" fill="black">
<rect fill="white" x="52.7106" y="80.0649" width="96" height="37"/>
<path d="M70.3758 115.56C67.0758 115.56 64.2258 114.84 61.8258 113.4C59.4558 111.93 57.6558 109.92 56.4258 107.37C55.1958 104.82 54.5808 101.94 54.5808 98.7299C54.5808 95.0399 55.2858 91.8749 56.6958 89.2349C58.1358 86.5949 60.1608 84.5999 62.7708 83.2499C65.3808 81.8999 68.4258 81.2249 71.9058 81.2249C75.1758 81.2249 78.8508 81.6899 82.9308 82.6199L82.4358 90.9899H77.8908L76.6758 85.2299C76.3758 84.9299 75.8058 84.6599 74.9658 84.4199C74.1258 84.1499 73.0308 84.0149 71.6808 84.0149C68.7408 84.0149 66.4308 85.2149 64.7508 87.6149C63.0708 89.9849 62.2308 93.4199 62.2308 97.9199C62.2308 102.33 62.9508 105.9 64.3908 108.63C65.8308 111.33 68.0208 112.68 70.9608 112.68C72.1608 112.68 73.2858 112.53 74.3358 112.23C75.3858 111.93 76.1808 111.54 76.7208 111.06V101.385L71.9508 100.935V97.9199H85.6308V100.935L83.2458 101.34V113.265C82.6158 113.295 81.4758 113.55 79.8258 114.03C77.9058 114.54 76.2558 114.915 74.8758 115.155C73.5258 115.425 72.0258 115.56 70.3758 115.56ZM99.1821 84.5999L92.7471 84.8249L90.9921 94.6349H87.2121L87.9771 81.6299H117.002L117.542 94.6349H113.987L112.232 84.8249L105.887 84.5999V111.915L112.187 112.365V115.065H93.4221V112.365L99.1821 111.915V84.5999ZM135.583 115.56C130.483 115.56 126.583 114.045 123.883 111.015C121.183 107.955 119.833 103.785 119.833 98.5049C119.833 95.0249 120.538 91.9949 121.948 89.4149C123.388 86.8049 125.353 84.7949 127.843 83.3849C130.333 81.9749 133.153 81.2699 136.303 81.2699C137.623 81.2699 138.898 81.3599 140.128 81.5399C141.358 81.6899 142.813 81.8999 144.493 82.1699C145.753 82.3799 146.443 82.4849 146.563 82.4849L146.068 91.7549H141.928L140.533 85.3199C140.203 84.9899 139.633 84.7199 138.823 84.5099C138.013 84.2999 136.978 84.1949 135.718 84.1949C133.168 84.1949 131.113 85.3799 129.553 87.7499C128.023 90.0899 127.258 93.4949 127.258 97.9649C127.258 102.285 127.993 105.81 129.463 108.54C130.933 111.27 133.078 112.635 135.898 112.635C137.248 112.635 138.283 112.515 139.003 112.275C139.753 112.005 140.383 111.63 140.893 111.15L142.873 106.515L146.653 106.875L145.753 113.85C145.123 113.91 144.493 114.03 143.863 114.21C143.263 114.36 142.888 114.45 142.738 114.48C141.538 114.81 140.413 115.065 139.363 115.245C138.343 115.455 137.083 115.56 135.583 115.56Z"/>
</mask>
<path d="M70.3758 115.56C67.0758 115.56 64.2258 114.84 61.8258 113.4C59.4558 111.93 57.6558 109.92 56.4258 107.37C55.1958 104.82 54.5808 101.94 54.5808 98.7299C54.5808 95.0399 55.2858 91.8749 56.6958 89.2349C58.1358 86.5949 60.1608 84.5999 62.7708 83.2499C65.3808 81.8999 68.4258 81.2249 71.9058 81.2249C75.1758 81.2249 78.8508 81.6899 82.9308 82.6199L82.4358 90.9899H77.8908L76.6758 85.2299C76.3758 84.9299 75.8058 84.6599 74.9658 84.4199C74.1258 84.1499 73.0308 84.0149 71.6808 84.0149C68.7408 84.0149 66.4308 85.2149 64.7508 87.6149C63.0708 89.9849 62.2308 93.4199 62.2308 97.9199C62.2308 102.33 62.9508 105.9 64.3908 108.63C65.8308 111.33 68.0208 112.68 70.9608 112.68C72.1608 112.68 73.2858 112.53 74.3358 112.23C75.3858 111.93 76.1808 111.54 76.7208 111.06V101.385L71.9508 100.935V97.9199H85.6308V100.935L83.2458 101.34V113.265C82.6158 113.295 81.4758 113.55 79.8258 114.03C77.9058 114.54 76.2558 114.915 74.8758 115.155C73.5258 115.425 72.0258 115.56 70.3758 115.56ZM99.1821 84.5999L92.7471 84.8249L90.9921 94.6349H87.2121L87.9771 81.6299H117.002L117.542 94.6349H113.987L112.232 84.8249L105.887 84.5999V111.915L112.187 112.365V115.065H93.4221V112.365L99.1821 111.915V84.5999ZM135.583 115.56C130.483 115.56 126.583 114.045 123.883 111.015C121.183 107.955 119.833 103.785 119.833 98.5049C119.833 95.0249 120.538 91.9949 121.948 89.4149C123.388 86.8049 125.353 84.7949 127.843 83.3849C130.333 81.9749 133.153 81.2699 136.303 81.2699C137.623 81.2699 138.898 81.3599 140.128 81.5399C141.358 81.6899 142.813 81.8999 144.493 82.1699C145.753 82.3799 146.443 82.4849 146.563 82.4849L146.068 91.7549H141.928L140.533 85.3199C140.203 84.9899 139.633 84.7199 138.823 84.5099C138.013 84.2999 136.978 84.1949 135.718 84.1949C133.168 84.1949 131.113 85.3799 129.553 87.7499C128.023 90.0899 127.258 93.4949 127.258 97.9649C127.258 102.285 127.993 105.81 129.463 108.54C130.933 111.27 133.078 112.635 135.898 112.635C137.248 112.635 138.283 112.515 139.003 112.275C139.753 112.005 140.383 111.63 140.893 111.15L142.873 106.515L146.653 106.875L145.753 113.85C145.123 113.91 144.493 114.03 143.863 114.21C143.263 114.36 142.888 114.45 142.738 114.48C141.538 114.81 140.413 115.065 139.363 115.245C138.343 115.455 137.083 115.56 135.583 115.56Z" fill="white"/>
<path d="M61.8258 113.4L61.2987 114.25L61.305 114.254L61.3113 114.257L61.8258 113.4ZM56.4258 107.37L57.3265 106.935L56.4258 107.37ZM56.6958 89.2349L55.8179 88.7561L55.8137 88.7638L56.6958 89.2349ZM62.7708 83.2499L63.2302 84.1382V84.1382L62.7708 83.2499ZM82.9308 82.6199L83.929 82.679L83.9791 81.8332L83.153 81.6449L82.9308 82.6199ZM82.4358 90.9899V91.9899H83.3784L83.434 91.049L82.4358 90.9899ZM77.8908 90.9899L76.9123 91.1963L77.0797 91.9899H77.8908V90.9899ZM76.6758 85.2299L77.6543 85.0235L77.5929 84.7329L77.3829 84.5228L76.6758 85.2299ZM74.9658 84.4199L74.6598 85.372L74.6754 85.377L74.6911 85.3815L74.9658 84.4199ZM64.7508 87.6149L65.5666 88.1933L65.57 88.1884L64.7508 87.6149ZM64.3908 108.63L63.5063 109.096L63.5084 109.101L64.3908 108.63ZM74.3358 112.23L74.6105 113.191H74.6105L74.3358 112.23ZM76.7208 111.06L77.3852 111.807L77.7208 111.509V111.06H76.7208ZM76.7208 101.385H77.7208V100.475L76.8147 100.389L76.7208 101.385ZM71.9508 100.935H70.9508V101.845L71.8569 101.931L71.9508 100.935ZM71.9508 97.9199V96.9199H70.9508V97.9199H71.9508ZM85.6308 97.9199H86.6308V96.9199H85.6308V97.9199ZM85.6308 100.935L85.7982 101.921L86.6308 101.779V100.935H85.6308ZM83.2458 101.34L83.0784 100.354L82.2458 100.495V101.34H83.2458ZM83.2458 113.265L83.2934 114.264L84.2458 114.218V113.265H83.2458ZM79.8258 114.03L80.0825 114.996L80.0939 114.993L80.1051 114.99L79.8258 114.03ZM74.8758 115.155L74.7045 114.17L74.692 114.172L74.6797 114.174L74.8758 115.155ZM70.3758 114.56C67.2243 114.56 64.559 113.874 62.3403 112.542L61.3113 114.257C63.8926 115.806 66.9273 116.56 70.3758 116.56V114.56ZM62.3529 112.55C60.1469 111.182 58.4753 109.317 57.3265 106.935L55.5251 107.804C56.8363 110.523 58.7647 112.678 61.2987 114.25L62.3529 112.55ZM57.3265 106.935C56.1701 104.538 55.5808 101.81 55.5808 98.7299H53.5808C53.5808 102.07 54.2215 105.102 55.5251 107.804L57.3265 106.935ZM55.5808 98.7299C55.5808 95.1665 56.2613 92.1711 57.5779 89.706L55.8137 88.7638C54.3103 91.5788 53.5808 94.9133 53.5808 98.7299H55.5808ZM57.5737 89.7138C58.9205 87.2446 60.8018 85.3942 63.2302 84.1382L62.3114 82.3617C59.5198 83.8056 57.3511 85.9453 55.8179 88.7561L57.5737 89.7138ZM63.2302 84.1382C65.6743 82.874 68.5563 82.2249 71.9058 82.2249V80.2249C68.2953 80.2249 65.0873 80.9259 62.3114 82.3617L63.2302 84.1382ZM71.9058 82.2249C75.0836 82.2249 78.6823 82.6772 82.7085 83.5949L83.153 81.6449C79.0193 80.7027 75.268 80.2249 71.9058 80.2249V82.2249ZM81.9325 82.5609L81.4375 90.9309L83.434 91.049L83.929 82.679L81.9325 82.5609ZM82.4358 89.9899H77.8908V91.9899H82.4358V89.9899ZM78.8693 90.7835L77.6543 85.0235L75.6973 85.4363L76.9123 91.1963L78.8693 90.7835ZM77.3829 84.5228C76.8907 84.0307 76.1051 83.7055 75.2405 83.4584L74.6911 85.3815C75.5065 85.6144 75.8608 85.8292 75.9687 85.937L77.3829 84.5228ZM75.2718 83.4679C74.2952 83.154 73.0857 83.0149 71.6808 83.0149V85.0149C72.9759 85.0149 73.9564 85.1459 74.6598 85.372L75.2718 83.4679ZM71.6808 83.0149C68.4159 83.0149 65.7995 84.373 63.9316 87.0415L65.57 88.1884C67.0621 86.0569 69.0657 85.0149 71.6808 85.0149V83.0149ZM63.935 87.0366C62.0857 89.6454 61.2308 93.3188 61.2308 97.9199H63.2308C63.2308 93.5211 64.0559 90.3245 65.5666 88.1932L63.935 87.0366ZM61.2308 97.9199C61.2308 102.427 61.9649 106.174 63.5063 109.096L65.2753 108.163C63.9367 105.626 63.2308 102.233 63.2308 97.9199H61.2308ZM63.5084 109.101C64.2959 110.577 65.3164 111.735 66.5885 112.519C67.8628 113.304 69.3325 113.68 70.9608 113.68V111.68C69.6491 111.68 68.5537 111.381 67.638 110.816C66.7202 110.25 65.9256 109.383 65.2731 108.159L63.5084 109.101ZM70.9608 113.68C72.2446 113.68 73.4628 113.519 74.6105 113.191L74.0611 111.268C73.1088 111.541 72.077 111.68 70.9608 111.68V113.68ZM74.6105 113.191C75.7376 112.869 76.6904 112.425 77.3852 111.807L76.0564 110.313C75.6712 110.655 75.034 110.99 74.0611 111.268L74.6105 113.191ZM77.7208 111.06V101.385H75.7208V111.06H77.7208ZM76.8147 100.389L72.0447 99.9394L71.8569 101.931L76.6269 102.381L76.8147 100.389ZM72.9508 100.935V97.9199H70.9508V100.935H72.9508ZM71.9508 98.9199H85.6308V96.9199H71.9508V98.9199ZM84.6308 97.9199V100.935H86.6308V97.9199H84.6308ZM85.4634 99.9491L83.0784 100.354L83.4132 102.326L85.7982 101.921L85.4634 99.9491ZM82.2458 101.34V113.265H84.2458V101.34H82.2458ZM83.1982 112.266C82.4333 112.302 81.1851 112.593 79.5465 113.07L80.1051 114.99C81.7665 114.507 82.7982 114.287 83.2934 114.264L83.1982 112.266ZM79.5691 113.063C77.6666 113.569 76.0466 113.936 74.7045 114.17L75.0471 116.14C76.4649 115.894 78.1449 115.511 80.0825 114.996L79.5691 113.063ZM74.6797 114.174C73.4055 114.429 71.9725 114.56 70.3758 114.56V116.56C72.0791 116.56 73.6461 116.421 75.0719 116.136L74.6797 114.174ZM99.1821 84.5999H100.182V83.5644L99.1472 83.6005L99.1821 84.5999ZM92.7471 84.8249L92.7122 83.8256L91.905 83.8538L91.7627 84.6488L92.7471 84.8249ZM90.9921 94.6349V95.6349H91.8291L91.9765 94.811L90.9921 94.6349ZM87.2121 94.6349L86.2138 94.5762L86.1516 95.6349H87.2121V94.6349ZM87.9771 81.6299V80.6299H87.0342L86.9788 81.5712L87.9771 81.6299ZM117.002 81.6299L118.001 81.5885L117.961 80.6299H117.002V81.6299ZM117.542 94.6349V95.6349H118.585L118.541 94.5935L117.542 94.6349ZM113.987 94.6349L113.003 94.811L113.15 95.6349H113.987V94.6349ZM112.232 84.8249L113.216 84.6488L113.074 83.8542L112.268 83.8256L112.232 84.8249ZM105.887 84.5999L105.923 83.6006L104.887 83.5638V84.5999H105.887ZM105.887 111.915H104.887V112.846L105.816 112.912L105.887 111.915ZM112.187 112.365H113.187V111.434L112.258 111.367L112.187 112.365ZM112.187 115.065V116.065H113.187V115.065H112.187ZM93.4221 115.065H92.4221V116.065H93.4221V115.065ZM93.4221 112.365L93.3442 111.368L92.4221 111.44V112.365H93.4221ZM99.1821 111.915L99.26 112.912L100.182 112.84V111.915H99.1821ZM99.1472 83.6005L92.7122 83.8256L92.7821 85.8243L99.2171 85.5993L99.1472 83.6005ZM91.7627 84.6488L90.0077 94.4588L91.9765 94.811L93.7315 85.001L91.7627 84.6488ZM90.9921 93.6349H87.2121V95.6349H90.9921V93.6349ZM88.2104 94.6937L88.9754 81.6887L86.9788 81.5712L86.2138 94.5762L88.2104 94.6937ZM87.9771 82.6299H117.002V80.6299H87.9771V82.6299ZM116.003 81.6714L116.543 94.6764L118.541 94.5935L118.001 81.5885L116.003 81.6714ZM117.542 93.6349H113.987V95.6349H117.542V93.6349ZM114.971 94.4588L113.216 84.6488L111.248 85.001L113.003 94.811L114.971 94.4588ZM112.268 83.8256L105.923 83.6006L105.852 85.5993L112.197 85.8243L112.268 83.8256ZM104.887 84.5999V111.915H106.887V84.5999H104.887ZM105.816 112.912L112.116 113.362L112.258 111.367L105.958 110.917L105.816 112.912ZM111.187 112.365V115.065H113.187V112.365H111.187ZM112.187 114.065H93.4221V116.065H112.187V114.065ZM94.4221 115.065V112.365H92.4221V115.065H94.4221ZM93.5 113.362L99.26 112.912L99.1042 110.918L93.3442 111.368L93.5 113.362ZM100.182 111.915V84.5999H98.1821V111.915H100.182ZM123.883 111.015L123.133 111.677L123.137 111.68L123.883 111.015ZM121.948 89.4149L121.073 88.9319L121.071 88.9354L121.948 89.4149ZM127.843 83.3849L127.351 82.5148L127.843 83.3849ZM140.128 81.5399L139.983 82.5294L139.995 82.5311L140.007 82.5326L140.128 81.5399ZM144.493 82.1699L144.658 81.1835L144.652 81.1826L144.493 82.1699ZM146.563 82.4849L147.562 82.5383L147.618 81.4849H146.563V82.4849ZM146.068 91.7549V92.7549H147.016L147.067 91.8083L146.068 91.7549ZM141.928 91.7549L140.951 91.9668L141.122 92.7549H141.928V91.7549ZM140.533 85.3199L141.511 85.1081L141.448 84.8207L141.24 84.6128L140.533 85.3199ZM138.823 84.5099L138.572 85.4779V85.4779L138.823 84.5099ZM129.553 87.7499L128.718 87.2001L128.716 87.2027L129.553 87.7499ZM129.463 108.54L130.344 108.066L129.463 108.54ZM139.003 112.275L139.319 113.224L139.331 113.22L139.342 113.216L139.003 112.275ZM140.893 111.15L141.579 111.878L141.731 111.735L141.813 111.543L140.893 111.15ZM142.873 106.515L142.968 105.519L142.241 105.45L141.954 106.122L142.873 106.515ZM146.653 106.875L147.645 107.003L147.777 105.977L146.748 105.879L146.653 106.875ZM145.753 113.85L145.848 114.845L146.643 114.77L146.745 113.978L145.753 113.85ZM143.863 114.21L144.106 115.18L144.122 115.176L144.138 115.171L143.863 114.21ZM142.738 114.48L142.542 113.499L142.507 113.506L142.473 113.516L142.738 114.48ZM139.363 115.245L139.194 114.259L139.178 114.262L139.162 114.265L139.363 115.245ZM135.583 114.56C130.69 114.56 127.093 113.114 124.63 110.35L123.137 111.68C126.073 114.976 130.277 116.56 135.583 116.56V114.56ZM124.633 110.353C122.137 107.524 120.833 103.615 120.833 98.5049H118.833C118.833 103.955 120.229 108.385 123.133 111.677L124.633 110.353ZM120.833 98.5049C120.833 95.1617 121.51 92.3026 122.826 89.8945L121.071 88.9354C119.567 91.6873 118.833 94.8881 118.833 98.5049H120.833ZM122.824 89.898C124.178 87.4429 126.014 85.5701 128.336 84.2551L127.351 82.5148C124.693 84.0198 122.598 86.167 121.073 88.9319L122.824 89.898ZM128.336 84.2551C130.661 82.9386 133.308 82.2699 136.303 82.2699V80.2699C132.998 80.2699 130.006 81.0113 127.351 82.5148L128.336 84.2551ZM136.303 82.2699C137.578 82.2699 138.804 82.3568 139.983 82.5294L140.273 80.5505C138.992 80.363 137.669 80.2699 136.303 80.2699V82.2699ZM140.007 82.5326C141.221 82.6806 142.663 82.8886 144.335 83.1573L144.652 81.1826C142.964 80.9113 141.496 80.6993 140.249 80.5473L140.007 82.5326ZM144.329 83.1563C144.96 83.2616 145.453 83.3412 145.805 83.3948C145.981 83.4215 146.126 83.4425 146.238 83.457C146.322 83.4679 146.456 83.4849 146.563 83.4849V81.4849C146.61 81.4849 146.613 81.4888 146.495 81.4735C146.404 81.4618 146.276 81.4434 146.106 81.4176C145.768 81.3661 145.286 81.2883 144.658 81.1835L144.329 83.1563ZM145.565 82.4316L145.07 91.7016L147.067 91.8083L147.562 82.5383L145.565 82.4316ZM146.068 90.7549H141.928V92.7549H146.068V90.7549ZM142.906 91.5431L141.511 85.1081L139.556 85.5318L140.951 91.9668L142.906 91.5431ZM141.24 84.6128C140.72 84.0921 139.939 83.7662 139.074 83.5419L138.572 85.4779C139.327 85.6737 139.687 85.8878 139.826 86.027L141.24 84.6128ZM139.074 83.5419C138.152 83.3029 137.025 83.1949 135.718 83.1949V85.1949C136.932 85.1949 137.874 85.297 138.572 85.4779L139.074 83.5419ZM135.718 83.1949C132.789 83.1949 130.438 84.5864 128.718 87.2001L130.389 88.2997C131.788 86.1734 133.547 85.1949 135.718 85.1949V83.1949ZM128.716 87.2027C127.034 89.776 126.258 93.4068 126.258 97.9649H128.258C128.258 93.5831 129.013 90.4039 130.39 88.2972L128.716 87.2027ZM126.258 97.9649C126.258 102.389 127.01 106.092 128.583 109.014L130.344 108.066C128.977 105.528 128.258 102.181 128.258 97.9649H126.258ZM128.583 109.014C129.381 110.497 130.392 111.662 131.638 112.455C132.888 113.25 134.32 113.635 135.898 113.635V111.635C134.657 111.635 133.606 111.337 132.711 110.768C131.812 110.195 131.015 109.313 130.344 108.066L128.583 109.014ZM135.898 113.635C137.286 113.635 138.447 113.514 139.319 113.224L138.687 111.326C138.119 111.516 137.211 111.635 135.898 111.635V113.635ZM139.342 113.216C140.203 112.906 140.956 112.464 141.579 111.878L140.208 110.422C139.811 110.796 139.303 111.104 138.665 111.334L139.342 113.216ZM141.813 111.543L143.793 106.908L141.954 106.122L139.974 110.757L141.813 111.543ZM142.778 107.51L146.558 107.87L146.748 105.879L142.968 105.519L142.778 107.51ZM145.661 106.747L144.761 113.722L146.745 113.978L147.645 107.003L145.661 106.747ZM145.658 112.854C144.965 112.92 144.275 113.052 143.589 113.248L144.138 115.171C144.711 115.008 145.281 114.899 145.848 114.845L145.658 112.854ZM143.621 113.24C143.012 113.392 142.663 113.475 142.542 113.499L142.934 115.461C143.113 115.425 143.515 115.328 144.106 115.18L143.621 113.24ZM142.473 113.516C141.3 113.838 140.207 114.086 139.194 114.259L139.532 116.231C140.619 116.044 141.777 115.781 143.003 115.444L142.473 113.516ZM139.162 114.265C138.23 114.457 137.042 114.56 135.583 114.56V116.56C137.124 116.56 138.457 116.453 139.565 116.224L139.162 114.265Z" fill="white" mask="url(#path-4-outside-1_45_10)"/>
<path d="M315.681 64.44C312.747 64.44 310.214 63.8 308.081 62.52C305.974 61.2133 304.374 59.4267 303.281 57.16C302.187 54.8933 301.641 52.3333 301.641 49.48C301.641 46.2 302.267 43.3867 303.521 41.04C304.801 38.6933 306.601 36.92 308.921 35.72C311.241 34.52 313.947 33.92 317.041 33.92C319.947 33.92 323.214 34.3333 326.841 35.16L326.401 42.6H322.361L321.281 37.48C321.014 37.2133 320.507 36.9733 319.761 36.76C319.014 36.52 318.041 36.4 316.841 36.4C314.227 36.4 312.174 37.4667 310.681 39.6C309.187 41.7067 308.441 44.76 308.441 48.76C308.441 52.68 309.081 55.8533 310.361 58.28C311.641 60.68 313.587 61.88 316.201 61.88C317.267 61.88 318.267 61.7467 319.201 61.48C320.134 61.2133 320.841 60.8667 321.321 60.44V51.84L317.081 51.44V48.76H329.241V51.44L327.121 51.8V62.4C326.561 62.4267 325.547 62.6533 324.081 63.08C322.374 63.5333 320.907 63.8667 319.681 64.08C318.481 64.32 317.147 64.44 315.681 64.44ZM331.366 57.76C331.366 55.3333 332.58 53.5067 335.006 52.28C337.46 51.0533 340.62 50.4267 344.486 50.4V49.48C344.486 48.3867 344.366 47.5333 344.126 46.92C343.913 46.3067 343.5 45.8533 342.886 45.56C342.3 45.24 341.433 45.08 340.286 45.08C338.98 45.08 337.806 45.2533 336.766 45.6C335.726 45.92 334.646 46.3467 333.526 46.88L332.286 44.32C332.686 43.9733 333.353 43.56 334.286 43.08C335.246 42.6 336.38 42.1867 337.686 41.84C338.993 41.4667 340.34 41.28 341.726 41.28C343.78 41.28 345.38 41.5467 346.526 42.08C347.7 42.6133 348.54 43.4667 349.046 44.64C349.553 45.8133 349.806 47.3867 349.806 49.36V61.6H351.966V63.84C351.433 63.9733 350.673 64.1067 349.686 64.24C348.7 64.3733 347.833 64.44 347.086 64.44C346.18 64.44 345.566 64.3067 345.246 64.04C344.953 63.7733 344.806 63.2267 344.806 62.4V61.32C344.086 62.12 343.153 62.84 342.006 63.48C340.86 64.12 339.566 64.44 338.126 64.44C336.9 64.44 335.766 64.1867 334.726 63.68C333.713 63.1467 332.9 62.3867 332.286 61.4C331.673 60.3867 331.366 59.1733 331.366 57.76ZM340.686 61.12C341.246 61.12 341.886 60.96 342.606 60.64C343.326 60.2933 343.953 59.88 344.486 59.4V52.84C342.086 52.84 340.286 53.2533 339.086 54.08C337.913 54.88 337.326 55.92 337.326 57.2C337.326 58.48 337.62 59.4533 338.206 60.12C338.82 60.7867 339.646 61.12 340.686 61.12ZM354.463 52.92C354.463 50.4133 354.956 48.28 355.943 46.52C356.956 44.76 358.303 43.44 359.983 42.56C361.663 41.6533 363.489 41.2 365.463 41.2C368.823 41.2 371.409 42.24 373.223 44.32C375.063 46.3733 375.983 49.1733 375.983 52.72C375.983 55.2533 375.476 57.4133 374.463 59.2C373.476 60.96 372.143 62.28 370.463 63.16C368.809 64.0133 366.983 64.44 364.983 64.44C361.649 64.44 359.063 63.4133 357.223 61.36C355.383 59.28 354.463 56.4667 354.463 52.92ZM365.303 61.84C368.316 61.84 369.823 58.9333 369.823 53.12C369.823 50.08 369.463 47.7733 368.743 46.2C368.023 44.6 366.849 43.8 365.223 43.8C362.129 43.8 360.583 46.7067 360.583 52.52C360.583 55.56 360.956 57.88 361.703 59.48C362.476 61.0533 363.676 61.84 365.303 61.84ZM231.833 86.92L226.113 87.12L224.553 95.84H221.193L221.873 84.28H247.673L248.153 95.84H244.993L243.433 87.12L237.793 86.92V111.2L243.393 111.6V114H226.713V111.6L231.833 111.2V86.92ZM260.91 114.44C257.39 114.44 254.763 113.413 253.03 111.36C251.323 109.28 250.47 106.453 250.47 102.88C250.47 100.48 250.91 98.4 251.79 96.64C252.696 94.88 253.963 93.5333 255.59 92.6C257.216 91.6667 259.096 91.2 261.23 91.2C263.896 91.2 265.95 91.9067 267.39 93.32C268.83 94.7067 269.576 96.6933 269.63 99.28C269.63 101.04 269.523 102.347 269.31 103.2H256.31C256.416 105.627 256.99 107.52 258.03 108.88C259.07 110.213 260.55 110.88 262.47 110.88C263.51 110.88 264.576 110.707 265.67 110.36C266.79 110.013 267.67 109.6 268.31 109.12L269.31 111.32C268.59 112.093 267.416 112.813 265.79 113.48C264.19 114.12 262.563 114.44 260.91 114.44ZM264.03 100.8C264.083 100.053 264.11 99.48 264.11 99.08C264.11 95.5333 262.923 93.76 260.55 93.76C259.243 93.76 258.23 94.28 257.51 95.32C256.79 96.36 256.39 98.1867 256.31 100.8H264.03ZM272.302 103C272.302 100.707 272.755 98.6667 273.662 96.88C274.595 95.0933 275.915 93.7067 277.622 92.72C279.355 91.7067 281.369 91.2 283.662 91.2C284.729 91.2 285.649 91.28 286.422 91.44C287.195 91.6 288.062 91.8133 289.022 92.08L290.182 92.4L289.942 99.24H286.462L285.462 94.84C285.302 94.1467 284.515 93.8 283.102 93.8C281.609 93.8 280.435 94.4533 279.582 95.76C278.755 97.0667 278.329 99.1067 278.302 101.88C278.302 104.813 278.809 107.067 279.822 108.64C280.835 110.187 282.182 110.96 283.862 110.96C285.889 110.96 287.755 110.413 289.462 109.32L290.382 111.4C289.689 112.147 288.622 112.84 287.182 113.48C285.769 114.12 284.235 114.44 282.582 114.44C279.169 114.44 276.595 113.387 274.862 111.28C273.155 109.173 272.302 106.413 272.302 103ZM295.444 84.76L292.404 84.24V82.08L299.844 81.2H299.964L301.004 81.96L301.044 90.88L300.764 94.36C301.591 93.6133 302.711 92.92 304.124 92.28C305.564 91.64 307.071 91.32 308.644 91.32C310.324 91.32 311.631 91.64 312.564 92.28C313.497 92.8933 314.151 93.84 314.524 95.12C314.897 96.4 315.084 98.1067 315.084 100.24V111.24L317.644 111.6V114H307.124V111.6L309.444 111.24V100.24C309.444 98.8533 309.351 97.7733 309.164 97C308.977 96.2267 308.631 95.6533 308.124 95.28C307.644 94.9067 306.924 94.72 305.964 94.72C305.137 94.72 304.284 94.92 303.404 95.32C302.551 95.6933 301.791 96.1467 301.124 96.68V111.24L303.564 111.6V114H293.204V111.6L295.444 111.28V84.76ZM322.601 95.56L320.041 94.84V92.08L326.681 91.24H326.801L327.801 92.04V93.6L327.761 94.56C328.694 93.68 329.908 92.92 331.401 92.28C332.894 91.64 334.401 91.32 335.921 91.32C337.548 91.32 338.814 91.6267 339.721 92.24C340.654 92.8267 341.321 93.76 341.721 95.04C342.121 96.32 342.321 98.0533 342.321 100.24V111.28L344.761 111.6V114H334.441V111.6L336.601 111.28V100.24C336.601 98.8533 336.508 97.7733 336.321 97C336.134 96.2 335.788 95.6267 335.281 95.28C334.801 94.9067 334.108 94.72 333.201 94.72C331.681 94.72 330.054 95.3733 328.321 96.68V111.24L330.721 111.6V114H320.281V111.6L322.601 111.24V95.56ZM347.588 102.92C347.588 100.413 348.081 98.28 349.068 96.52C350.081 94.76 351.428 93.44 353.108 92.56C354.788 91.6533 356.614 91.2 358.588 91.2C361.948 91.2 364.534 92.24 366.348 94.32C368.188 96.3733 369.108 99.1733 369.108 102.72C369.108 105.253 368.601 107.413 367.588 109.2C366.601 110.96 365.268 112.28 363.588 113.16C361.934 114.013 360.108 114.44 358.108 114.44C354.774 114.44 352.188 113.413 350.348 111.36C348.508 109.28 347.588 106.467 347.588 102.92ZM358.428 111.84C361.441 111.84 362.948 108.933 362.948 103.12C362.948 100.08 362.588 97.7733 361.868 96.2C361.148 94.6 359.974 93.8 358.348 93.8C355.254 93.8 353.708 96.7067 353.708 102.52C353.708 105.56 354.081 107.88 354.828 109.48C355.601 111.053 356.801 111.84 358.428 111.84ZM375.064 84.76L372.104 84.24V82.08L379.504 81.2H379.584L380.664 81.96V111.28L383.584 111.6V114H372.264V111.6L375.064 111.24V84.76ZM386.338 102.92C386.338 100.413 386.831 98.28 387.818 96.52C388.831 94.76 390.178 93.44 391.858 92.56C393.538 91.6533 395.364 91.2 397.338 91.2C400.698 91.2 403.284 92.24 405.098 94.32C406.938 96.3733 407.858 99.1733 407.858 102.72C407.858 105.253 407.351 107.413 406.338 109.2C405.351 110.96 404.018 112.28 402.338 113.16C400.684 114.013 398.858 114.44 396.858 114.44C393.524 114.44 390.938 113.413 389.098 111.36C387.258 109.28 386.338 106.467 386.338 102.92ZM397.178 111.84C400.191 111.84 401.698 108.933 401.698 103.12C401.698 100.08 401.338 97.7733 400.618 96.2C399.898 94.6 398.724 93.8 397.098 93.8C394.004 93.8 392.458 96.7067 392.458 102.52C392.458 105.56 392.831 107.88 393.578 109.48C394.351 111.053 395.551 111.84 397.178 111.84ZM421.174 124.8C417.601 124.8 415.014 124.24 413.414 123.12C411.814 122 411.014 120.48 411.014 118.56C411.014 117.467 411.374 116.427 412.094 115.44C412.841 114.48 413.734 113.76 414.774 113.28C413.547 112.56 412.934 111.413 412.934 109.84C412.934 108.933 413.227 108.08 413.814 107.28C414.401 106.453 415.161 105.813 416.094 105.36C414.627 104.8 413.534 103.947 412.814 102.8C412.094 101.653 411.734 100.293 411.734 98.72C411.734 97.2 412.174 95.88 413.054 94.76C413.961 93.6133 415.161 92.7333 416.654 92.12C418.174 91.5067 419.814 91.2 421.574 91.2C424.694 91.2 427.014 91.8 428.534 93C428.881 92.5467 429.467 92.12 430.294 91.72C431.121 91.32 431.974 91.12 432.854 91.12H434.254V95.48H430.134C430.534 96.3333 430.734 97.24 430.734 98.2C430.761 100.627 429.907 102.573 428.174 104.04C426.441 105.48 424.067 106.2 421.054 106.2C419.801 106.2 418.747 106.107 417.894 105.92C417.627 106.267 417.414 106.64 417.254 107.04C417.121 107.413 417.054 107.747 417.054 108.04C417.054 108.92 417.361 109.52 417.974 109.84C418.614 110.16 419.747 110.32 421.374 110.32H425.654C431.094 110.32 433.814 112.293 433.814 116.24C433.814 117.893 433.227 119.373 432.054 120.68C430.881 121.987 429.321 123 427.374 123.72C425.427 124.44 423.361 124.8 421.174 124.8ZM421.454 103.72C423.934 103.72 425.174 102.027 425.174 98.64C425.174 96.9067 424.854 95.64 424.214 94.84C423.601 94.0133 422.654 93.6 421.374 93.6C420.121 93.6 419.147 94.0133 418.454 94.84C417.787 95.64 417.454 96.8533 417.454 98.48C417.454 101.973 418.787 103.72 421.454 103.72ZM421.774 122.04C423.454 122.04 424.907 121.627 426.134 120.8C427.361 120 427.974 118.88 427.974 117.44C427.974 116.293 427.667 115.467 427.054 114.96C426.467 114.453 425.401 114.2 423.854 114.2H419.494C418.827 114.2 418.214 114.16 417.654 114.08C416.934 115.04 416.574 116.187 416.574 117.52C416.574 118.987 416.974 120.107 417.774 120.88C418.574 121.653 419.907 122.04 421.774 122.04ZM439.937 123.96C439.457 123.96 438.937 123.92 438.377 123.84C437.843 123.76 437.457 123.667 437.217 123.56V119.28C437.403 119.387 437.777 119.493 438.337 119.6C438.897 119.707 439.403 119.76 439.857 119.76C441.19 119.76 442.283 119.32 443.137 118.44C444.017 117.56 444.83 116.08 445.577 114H443.417L435.897 94.6L434.097 94.08V91.76H445.097V94.08L442.177 94.56L445.737 105.64L447.177 110.36L448.417 105.64L451.697 94.56L449.177 94.08V91.76H457.857V94.08L455.897 94.56C454.43 99.04 452.977 103.36 451.537 107.52C450.097 111.68 449.257 114.013 449.017 114.52C448.163 116.76 447.35 118.547 446.577 119.88C445.803 121.213 444.883 122.227 443.817 122.92C442.75 123.613 441.457 123.96 439.937 123.96ZM243.741 164.44C239.207 164.44 235.741 163.093 233.341 160.4C230.941 157.68 229.741 153.973 229.741 149.28C229.741 146.187 230.367 143.493 231.621 141.2C232.901 138.88 234.647 137.093 236.861 135.84C239.074 134.587 241.581 133.96 244.381 133.96C245.554 133.96 246.687 134.04 247.781 134.2C248.874 134.333 250.167 134.52 251.661 134.76C252.781 134.947 253.394 135.04 253.501 135.04L253.061 143.28H249.381L248.141 137.56C247.847 137.267 247.341 137.027 246.621 136.84C245.901 136.653 244.981 136.56 243.861 136.56C241.594 136.56 239.767 137.613 238.381 139.72C237.021 141.8 236.341 144.827 236.341 148.8C236.341 152.64 236.994 155.773 238.301 158.2C239.607 160.627 241.514 161.84 244.021 161.84C245.221 161.84 246.141 161.733 246.781 161.52C247.447 161.28 248.007 160.947 248.461 160.52L250.221 156.4L253.581 156.72L252.781 162.92C252.221 162.973 251.661 163.08 251.101 163.24C250.567 163.373 250.234 163.453 250.101 163.48C249.034 163.773 248.034 164 247.101 164.16C246.194 164.347 245.074 164.44 243.741 164.44ZM256.709 152.92C256.709 150.413 257.202 148.28 258.189 146.52C259.202 144.76 260.549 143.44 262.229 142.56C263.909 141.653 265.735 141.2 267.709 141.2C271.069 141.2 273.655 142.24 275.469 144.32C277.309 146.373 278.229 149.173 278.229 152.72C278.229 155.253 277.722 157.413 276.709 159.2C275.722 160.96 274.389 162.28 272.709 163.16C271.055 164.013 269.229 164.44 267.229 164.44C263.895 164.44 261.309 163.413 259.469 161.36C257.629 159.28 256.709 156.467 256.709 152.92ZM267.549 161.84C270.562 161.84 272.069 158.933 272.069 153.12C272.069 150.08 271.709 147.773 270.989 146.2C270.269 144.6 269.095 143.8 267.469 143.8C264.375 143.8 262.829 146.707 262.829 152.52C262.829 155.56 263.202 157.88 263.949 159.48C264.722 161.053 265.922 161.84 267.549 161.84ZM284.105 145.56L281.545 144.84V142.08L288.185 141.24H288.305L289.305 142.04V143.6L289.265 144.56C290.198 143.68 291.412 142.92 292.905 142.28C294.398 141.64 295.905 141.32 297.425 141.32C299.052 141.32 300.318 141.627 301.225 142.24C302.158 142.827 302.825 143.76 303.225 145.04C303.625 146.32 303.825 148.053 303.825 150.24V161.28L306.265 161.6V164H295.945V161.6L298.105 161.28V150.24C298.105 148.853 298.012 147.773 297.825 147C297.638 146.2 297.292 145.627 296.785 145.28C296.305 144.907 295.612 144.72 294.705 144.72C293.185 144.72 291.558 145.373 289.825 146.68V161.24L292.225 161.6V164H281.785V161.6L284.105 161.24V145.56ZM313.532 160.72C313.745 161.04 314.225 161.347 314.972 161.64C315.745 161.907 316.518 162.04 317.292 162.04C318.545 162.04 319.478 161.787 320.092 161.28C320.732 160.747 321.052 160.053 321.052 159.2C321.052 158.32 320.665 157.613 319.892 157.08C319.118 156.52 317.812 155.84 315.972 155.04L314.852 154.56C313.012 153.787 311.638 152.853 310.732 151.76C309.825 150.667 309.372 149.253 309.372 147.52C309.372 146.32 309.732 145.253 310.452 144.32C311.172 143.36 312.185 142.613 313.492 142.08C314.798 141.547 316.305 141.28 318.012 141.28C319.265 141.28 320.332 141.36 321.212 141.52C322.118 141.68 323.065 141.893 324.052 142.16C324.585 142.347 324.985 142.453 325.252 142.48V147.72H322.092L321.172 144.68C321.012 144.413 320.652 144.173 320.092 143.96C319.532 143.747 318.892 143.64 318.172 143.64C317.078 143.64 316.198 143.88 315.532 144.36C314.892 144.813 314.572 145.453 314.572 146.28C314.572 147.027 314.798 147.653 315.252 148.16C315.705 148.64 316.198 149.013 316.732 149.28C317.265 149.547 318.252 149.987 319.692 150.6C321.132 151.213 322.318 151.8 323.252 152.36C324.212 152.92 324.998 153.653 325.612 154.56C326.252 155.44 326.572 156.52 326.572 157.8C326.572 159.773 325.798 161.373 324.252 162.6C322.705 163.827 320.478 164.44 317.572 164.44C316.212 164.44 314.985 164.32 313.892 164.08C312.825 163.84 311.585 163.52 310.172 163.12L309.292 162.84V157.56H312.612L313.532 160.72ZM347.874 164.4C346.994 164.4 346.354 164.213 345.954 163.84C345.554 163.467 345.354 162.907 345.354 162.16V161.08C344.634 161.96 343.62 162.747 342.314 163.44C341.007 164.107 339.7 164.44 338.394 164.44C335.834 164.44 334.007 163.787 332.914 162.48C331.82 161.147 331.274 158.96 331.274 155.92V144.64L329.274 144.08V141.8L336.074 141.28H336.114L336.914 141.84V155.92C336.914 157.867 337.154 159.227 337.634 160C338.114 160.773 339.007 161.16 340.314 161.16C341.887 161.16 343.354 160.547 344.714 159.32V144.64L342.034 144.04V141.8L349.274 141.28H349.354L350.314 141.84V161.52H352.554L352.514 163.8C352.407 163.827 351.914 163.933 351.034 164.12C350.154 164.307 349.1 164.4 347.874 164.4ZM357.701 134.76L354.741 134.24V132.08L362.141 131.2H362.221L363.301 131.96V161.28L366.221 161.6V164H354.901V161.6L357.701 161.24V134.76ZM375.694 164.36C374.014 164.36 372.774 163.973 371.974 163.2C371.174 162.427 370.774 161.2 370.774 159.52V144.84H368.174V142.76C368.388 142.68 368.774 142.547 369.334 142.36C369.894 142.147 370.321 141.973 370.614 141.84C371.068 141.493 371.454 140.893 371.774 140.04C372.014 139.48 372.454 138.093 373.094 135.88H376.294L376.454 141.76H382.574V144.84H376.494V156.08C376.494 157.573 376.534 158.627 376.614 159.24C376.694 159.853 376.868 160.253 377.134 160.44C377.401 160.6 377.868 160.68 378.534 160.68C379.201 160.68 379.894 160.613 380.614 160.48C381.334 160.32 381.934 160.133 382.414 159.92L383.174 162.16C382.428 162.72 381.334 163.227 379.894 163.68C378.454 164.133 377.054 164.36 375.694 164.36ZM390.062 138.12C389.102 138.12 388.342 137.84 387.782 137.28C387.222 136.72 386.942 136 386.942 135.12C386.942 134.107 387.262 133.267 387.902 132.6C388.542 131.933 389.396 131.6 390.462 131.6C391.529 131.6 392.342 131.893 392.902 132.48C393.462 133.04 393.742 133.747 393.742 134.6C393.742 135.667 393.422 136.52 392.782 137.16C392.142 137.8 391.249 138.12 390.102 138.12H390.062ZM387.942 145.56L385.102 144.8V142.12L392.422 141.24H392.502L393.622 142.04V161.28L396.302 161.6V164H385.142V161.6L387.942 161.24V145.56ZM401.41 145.56L398.85 144.84V142.08L405.49 141.24H405.61L406.61 142.04V143.6L406.57 144.56C407.503 143.68 408.716 142.92 410.21 142.28C411.703 141.64 413.21 141.32 414.73 141.32C416.356 141.32 417.623 141.627 418.53 142.24C419.463 142.827 420.13 143.76 420.53 145.04C420.93 146.32 421.13 148.053 421.13 150.24V161.28L423.57 161.6V164H413.25V161.6L415.41 161.28V150.24C415.41 148.853 415.316 147.773 415.13 147C414.943 146.2 414.596 145.627 414.09 145.28C413.61 144.907 412.916 144.72 412.01 144.72C410.49 144.72 408.863 145.373 407.13 146.68V161.24L409.53 161.6V164H399.09V161.6L401.41 161.24V145.56ZM436.076 174.8C432.503 174.8 429.916 174.24 428.316 173.12C426.716 172 425.916 170.48 425.916 168.56C425.916 167.467 426.276 166.427 426.996 165.44C427.743 164.48 428.636 163.76 429.676 163.28C428.45 162.56 427.836 161.413 427.836 159.84C427.836 158.933 428.13 158.08 428.716 157.28C429.303 156.453 430.063 155.813 430.996 155.36C429.53 154.8 428.436 153.947 427.716 152.8C426.996 151.653 426.636 150.293 426.636 148.72C426.636 147.2 427.076 145.88 427.956 144.76C428.863 143.613 430.063 142.733 431.556 142.12C433.076 141.507 434.716 141.2 436.476 141.2C439.596 141.2 441.916 141.8 443.436 143C443.783 142.547 444.37 142.12 445.196 141.72C446.023 141.32 446.876 141.12 447.756 141.12H449.156V145.48H445.036C445.436 146.333 445.636 147.24 445.636 148.2C445.663 150.627 444.81 152.573 443.076 154.04C441.343 155.48 438.97 156.2 435.956 156.2C434.703 156.2 433.65 156.107 432.796 155.92C432.53 156.267 432.316 156.64 432.156 157.04C432.023 157.413 431.956 157.747 431.956 158.04C431.956 158.92 432.263 159.52 432.876 159.84C433.516 160.16 434.65 160.32 436.276 160.32H440.556C445.996 160.32 448.716 162.293 448.716 166.24C448.716 167.893 448.13 169.373 446.956 170.68C445.783 171.987 444.223 173 442.276 173.72C440.33 174.44 438.263 174.8 436.076 174.8ZM436.356 153.72C438.836 153.72 440.076 152.027 440.076 148.64C440.076 146.907 439.756 145.64 439.116 144.84C438.503 144.013 437.556 143.6 436.276 143.6C435.023 143.6 434.05 144.013 433.356 144.84C432.69 145.64 432.356 146.853 432.356 148.48C432.356 151.973 433.69 153.72 436.356 153.72ZM436.676 172.04C438.356 172.04 439.81 171.627 441.036 170.8C442.263 170 442.876 168.88 442.876 167.44C442.876 166.293 442.57 165.467 441.956 164.96C441.37 164.453 440.303 164.2 438.756 164.2H434.396C433.73 164.2 433.116 164.16 432.556 164.08C431.836 165.04 431.476 166.187 431.476 167.52C431.476 168.987 431.876 170.107 432.676 170.88C433.476 171.653 434.81 172.04 436.676 172.04Z" fill="white"/>
</g>
</svg>
